$MeshFormat
4.1 0 8
$EndMeshFormat
$Entities
0 0 1 0
1 -0.9708552842288103 -0.9846070169597392 -0.9724809805243777 1.175760966152315 0.9840570403171724 0.9696127090613667 0 0 
$EndEntities
$Nodes
1 374 1 374
2 1 0 374
1
2
3
4
5
6
7
8
9
10
11
12
13
14
15
16
17
18
19
20
21
22
23
24
25
26
27
28
29
30
31
32
33
34
35
36
37
38
39
40
41
42
43
44
45
46
47
48
49
50
51
52
53
54
55
56
57
58
59
60
61
62
63
64
65
66
67
68
69
70
71
72
73
74
75
76
77
78
79
80
81
82
83
84
85
86
87
88
89
90
91
92
93
94
95
96
97
98
99
100
101
102
103
104
105
106
107
108
109
110
111
112
113
114
115
116
117
118
119
120
121
122
123
124
125
126
127
128
129
130
131
132
133
134
135
136
137
138
139
140
141
142
143
144
145
146
147
148
149
150
151
152
153
154
155
156
157
158
159
160
161
162
163
164
165
166
167
168
169
170
171
172
173
174
175
176
177
178
179
180
181
182
183
184
185
186
187
188
189
190
191
192
193
194
195
196
197
198
199
200
201
202
203
204
205
206
207
208
209
210
211
212
213
214
215
216
217
218
219
220
221
222
223
224
225
226
227
228
229
230
231
232
233
234
235
236
237
238
239
240
241
242
243
244
245
246
247
248
249
250
251
252
253
254
255
256
257
258
259
260
261
262
263
264
265
266
267
268
269
270
271
272
273
274
275
276
277
278
279
280
281
282
283
284
285
286
287
288
289
290
291
292
293
294
295
296
297
298
299
300
301
302
303
304
305
306
307
308
309
310
311
312
313
314
315
316
317
318
319
320
321
322
323
324
325
326
327
328
329
330
331
332
333
334
335
336
337
338
339
340
341
342
343
344
345
346
347
348
349
350
351
352
353
354
355
356
357
358
359
360
361
362
363
364
365
366
367
368
369
370
371
372
373
374
0.4991929396543575 -0.5768084927231947 -0.7934395158858116
0.6849999999999998 -0.5795201348831114 -0.796320270275924
0.8191668578320035 -0.5690850204542872 -0.7915875111487538
0.1129333481563524 -0.3443234132493533 -0.786901483237463
0.2329999999999999 -0.397527165855025 -0.8006557477750709
0.4379157637926145 -0.4692276847344079 -0.8215869727860157
0.6849999999999998 -0.44725 -0.8534973469603369
0.9011001146992024 -0.4483284609356378 -0.8344811841700223
1.057753411692839 -0.3740141015593964 -0.818210951850316
0.08887441418297448 -0.2221500000000001 -0.793715679567544
0.2329999999999999 -0.2221500000000001 -0.8293899761930308
0.4589999999999999 -0.2221500000000001 -0.8803086034801295
0.6849999999999998 -0.2221500000000001 -0.9219816537458984
0.9109999999999998 -0.2221500000000001 -0.935897507834944
1.098628434958774 -0.2221500000000001 -0.8585501609436883
0.06862137216226483 0.002950000000000008 -0.7994519355780226
0.2329999999999999 0.002950000000000008 -0.8421961114931491
0.4589999999999999 0.002950000000000008 -0.8965899341997453
0.6849999999999998 0.002950000000000008 -0.9444073484686277
0.9109999999999998 0.002950000000000008 -0.9724809805243778
1.122308071143144 0.002950000000000008 -0.8819193903403688
0.08996467830635213 0.2280499999999999 -0.7934068847640602
0.2329999999999999 0.2280499999999999 -0.8287005948219478
0.4589999999999999 0.2280499999999999 -0.8794321449833619
0.6849999999999998 0.2280499999999999 -0.9207744311285251
0.9109999999999998 0.2280499999999999 -0.9339281420606039
1.097353710018192 0.2280499999999999 -0.8572921458575531
0.1140236122797298 0.3486327189137666 -0.7865926884339792
0.2329999999999999 0.4004110613012466 -0.8001387117467587
0.4421435183812159 0.4736692176927373 -0.8205652257587867
0.6849999999999998 0.4531499999999999 -0.8510829017255904
0.8988485956286529 0.4530421011882688 -0.8325882140172135
1.056478686752257 0.3779368353137813 -0.8169529367641808
0.5062391973020266 0.5809287776126402 -0.792613062670531
0.6849999999999998 0.5828009512549355 -0.7948112420042076
0.8154143260477553 0.5732724907272735 -0.7904019266684125
0.1019602640631219 -0.7910584966950653 -0.5646657047415813
0.2329999999999999 -0.7991979113582701 -0.5738897837403769
0.4589999999999999 -0.7950901532881828 -0.5711091010518993
0.5736457484396853 -0.7855814859349488 -0.5609581278236111
-0.167789550444431 -0.608725821639007 -0.5826471164768499
0.01877615843787317 -0.6791954929834042 -0.6059949350169649
0.2329999999999999 -0.67235 -0.6667661453594538
0.4379157637926145 -0.6600450956339168 -0.7036211278508746
0.663387449063811 -0.6861987713100615 -0.6505348766941667
0.8428205058963485 -0.5924920945951808 -0.67235
-0.3667430185588666 -0.3936117335546556 -0.574910535639248
-0.2334737302666586 -0.4600870401327933 -0.6102675786862131
0.02536000889381151 -0.430514047949612 -0.7208084995885706
0.2329999999999999 -0.5100771658550249 -0.765226361619077
0.3485262729876908 -0.55891280789068 -0.7844230783489254
0.9558205058963485 -0.4961915452790829 -0.67235
1.0598801741704 -0.383641545279083 -0.67235
-0.4005990824531845 -0.2221500000000001 -0.5896353143516374
-0.2190000000000001 -0.2221500000000001 -0.6675505805436333
-0.0241255858170254 -0.2221500000000001 -0.750265266191996
1.134937305354531 -0.2221500000000001 -0.67235
-0.4168647334618847 0.002950000000000008 -0.5967096190452866
-0.2190000000000001 0.002950000000000008 -0.6831923812760567
-0.04437862783773505 0.002950000000000008 -0.7588327622307702
1.173594019184869 0.002950000000000008 -0.67235
-0.399723468028446 0.2280499999999999 -0.5892544895551727
-0.2190000000000001 0.2280499999999999 -0.6667085492998258
-0.02303532169364786 0.2280499999999999 -0.7498040597446531
1.132856332620963 0.2280499999999999 -0.67235
-0.3658674041341281 0.3972793067026805 -0.5745297108427833
-0.232226407040016 0.4646475840216082 -0.6093011534925858
0.02601416736783801 0.4354596313482597 -0.7194859699766905
0.2329999999999999 0.5129610613012467 -0.7634979433492609
0.3555725306353599 0.5623820294878956 -0.7830928528160569
0.9516171797300141 0.4992562311068518 -0.67235
1.058319444620224 0.3867062311068517 -0.67235
-0.1657106784000267 0.6125684622371097 -0.5818784390646119
0.02181054389438586 0.683861077342266 -0.6041306902589062
0.2329999999999999 0.67825 -0.6626179415118953
0.4605661950043414 0.6851730222150827 -0.677475605324481
0.6849999999999998 0.6623196030624985 -0.67235
0.8386171797300142 0.5956600697398744 -0.67235
0.10701757315731 0.7952030603040385 -0.5633016397172741
0.2329999999999999 0.802431707586738 -0.5714699981626346
0.4148931927066564 0.8019058831449455 -0.5718583578329053
-0.3543660307341681 -0.7987820189610697 -0.3480318656517224
-0.2190000000000001 -0.8265630318791219 -0.382996908940763
0.01877615843787317 -0.8438870564592191 -0.455378407761577
0.2329999999999999 -0.8673085941817344 -0.44725
0.4589999999999999 -0.8337403894795226 -0.44725
0.5863958730042487 -0.7938140982134925 -0.44725
-0.5847483445325571 -0.5909513320987758 -0.3531267453850628
-0.4358196184405009 -0.6685307992592655 -0.3941456273929304
-0.2334737302666586 -0.6791954929834042 -0.5037679879234697
-0.04870640260354475 -0.7587924883056737 -0.5358306796026283
0.6993958730042487 -0.7174203611016566 -0.44725
0.8432219672981505 -0.6048703611016566 -0.44725
-0.6302658366167482 -0.44725 -0.38448342378365
-0.44324581113532 -0.4600870401327933 -0.5049571997977793
-0.3184562171110977 -0.5436784002213222 -0.5520841012847655
0.962800111849669 -0.4403047752876286 -0.4447603557057785
1.038086820534361 -0.3606412921460477 -0.5181339261762974
-0.7960751296333721 -0.1644462601392991 -0.3438007715844272
-0.6901636625738643 -0.2325477560835795 -0.4065007471351101
-0.5135990824531844 -0.2221500000000001 -0.5301753552305672
1.012370896685248 -0.29287522663341 -0.3680672595096308
1.057365606551609 -0.219565135980046 -0.4447603557057785
-0.8019481679024313 0.002950000000000008 -0.3482271571733314
-0.671 0.002950000000000008 -0.4420050839204271
-0.5298647334618847 0.002950000000000008 -0.5410279267470959
1.085920257627516 0.002950000000000008 -0.44725
-0.795855760903203 0.1679566908862615 -0.3436354379800146
-0.689654831485411 0.237014014531757 -0.4059341734545975
-0.512723468028446 0.2280499999999999 -0.5295911383332359
1.01153977650792 0.296945457560237 -0.3704519835842217
1.056591035515846 0.224367274536142 -0.4461911901505331
-0.62856973298857 0.4531499999999999 -0.3833149899889872
-0.4427204424804768 0.4646475840216082 -0.5033118522037797
-0.3163773450666933 0.5473459733693473 -0.5508997670209832
0.9603591777034259 0.4451228836972125 -0.4461911901505331
1.037280572741375 0.3647381394953542 -0.5205186502508884
-0.5833349248424086 0.59494859044592 -0.3521530505561773
-0.4341506367632452 0.6732891542675521 -0.3918559691557525
-0.232226407040016 0.683861077342266 -0.5007930826204339
-0.04364909350935675 0.7626351289037765 -0.533714906330646
0.5655598593733229 0.789417266817525 -0.552348331187988
0.6713067326093467 0.7337148876678967 -0.4652889987127927
0.8407941397483425 0.6079306594717271 -0.44725
-0.3515843946054087 0.8028761383553202 -0.3463737976824272
-0.2190000000000001 0.8296180998061857 -0.3801665280098049
0.02181054389438586 0.8463144128182056 -0.4541089437983876
0.2329999999999999 0.867524722254273 -0.44725
0.4777359156239938 0.8261235150266522 -0.4652889987127927
0.5868445543489114 0.8002155886828051 -0.4022816645213213
-0.5694702612449669 -0.7936295424911572 -0.1253434671062273
-0.4358196184405009 -0.8267220445399677 -0.2090860802637364
-0.2190000000000001 -0.9117444380666907 -0.2221500000000001
0.006999999999999895 -0.9540555375708413 -0.2221500000000001
0.2329999999999999 -0.9394542742692646 -0.2221500000000001
0.4589999999999999 -0.8679406481619607 -0.2221500000000001
0.5959963505044237 -0.8014278722034385 -0.2221500000000001
-0.7915129983468601 -0.5699575174467997 -0.1210197281347101
-0.6524426362220952 -0.6554877581061211 -0.198214930953802
-0.5050326974008347 -0.7410179987654425 -0.275410133772894
0.7089963505044237 -0.7022584993440557 -0.2221500000000001
0.8221792304904272 -0.5897084993440557 -0.2221500000000001
-0.8229577891158613 -0.44725 -0.1688156872520059
-0.7432658366167482 -0.44725 -0.2813656872520058
0.9058570634174747 -0.44725 -0.2221500000000001
-0.8555642077094038 -0.2325477560835795 -0.2401607129207787
-0.7782727709564405 -0.3145129268059658 -0.3272011882012977
0.9951869427025704 -0.219565135980046 -0.2230951539981455
1.031197517058339 -0.1428085599667435 -0.2987585899969091
-0.8959172838194654 0.002950000000000008 -0.2221500000000001
1.010427026279948 0.002950000000000008 -0.1690466759196678
1.034634309585791 0.002950000000000008 -0.2815966759196677
-0.8548481762473511 0.237014014531757 -0.2394944869778975
-0.7774247191423515 0.3180233575529283 -0.3260908116298292
0.9940973438045495 0.2243672745361422 -0.2237421867375887
1.030981562389382 0.1468787908935703 -0.2998369778959812
-0.8214967635559832 0.4531499999999999 -0.1665949341090688
-0.74156973298857 0.4531499999999999 -0.2791449341090688
0.9027175060837593 0.4531499999999999 -0.2221500000000001
-0.7902954770469617 0.5741373979929068 -0.1191691005155959
-0.6506016578939142 0.6595763275527469 -0.1957327808898609
-0.5022510612720753 0.7450152571125868 -0.2722964612641258
0.7052414590533971 0.7054506885867686 -0.2221500000000001
0.8202170071568551 0.5929006885867687 -0.2221500000000001
-0.5672017242787533 0.7977573139706158 -0.1222297945974591
-0.4341506367632452 0.8292615097939824 -0.2072178767584755
-0.2190000000000001 0.9116703447644341 -0.2221500000000001
0.006999999999999895 0.9537051001195014 -0.2221500000000001
0.2329999999999999 0.939199201243097 -0.2221500000000001
0.4589999999999999 0.8681526481352206 -0.2221500000000001
0.5922414590533971 0.8046471040117074 -0.2221500000000001
-0.5746692349707643 -0.7975982041035812 0.002950000000000008
-0.4450000000000001 -0.8679234750799687 0.002950000000000008
-0.2190000000000001 -0.9547214274227176 0.002950000000000008
0.006999999999999895 -0.9846070169597392 0.002950000000000008
0.2329999999999999 -0.9575802436910335 0.002950000000000008
0.4589999999999999 -0.8736411076166004 0.002950000000000008
0.5937203271791436 -0.801171724438976 0.002950000000000008
-0.7947883487094412 -0.5743959464679987 0.002950000000000008
-0.6876692349707643 -0.6869459464679988 0.002950000000000008
0.7067203271791436 -0.693623834703293 0.002950000000000008
0.8139224777144942 -0.581073834703293 0.002950000000000008
-0.8609128863253765 -0.44725 0.002950000000000008
0.8858804465136534 -0.44725 0.002950000000000008
-0.9437346747077292 -0.2221500000000001 0.002950000000000008
0.9697488819123667 -0.2221500000000001 0.002950000000000008
-0.9708552842288103 0.002950000000000008 0.002950000000000008
0.997212223769848 0.002950000000000008 0.002950000000000008
-0.9422747148886199 0.2280499999999999 0.002950000000000008
0.9682704720860973 0.2280499999999999 0.002950000000000008
-0.857992966687158 0.4531499999999999 0.002950000000000008
0.8829236268611145 0.4531499999999999 0.002950000000000008
-0.7929633989355546 0.5777213374238983 0.002950000000000008
-0.68426973141103 0.6902713374238982 0.002950000000000008
0.7032634217645819 0.6968911356620111 0.002950000000000008
0.8120744654316574 0.584341135662011 0.002950000000000008
-0.57126973141103 0.8008424484117551 0.002950000000000008
-0.4450000000000001 0.8681355872148315 0.002950000000000008
-0.2190000000000001 0.9543666408817377 0.002950000000000008
0.006999999999999895 0.9840570403171724 0.002950000000000008
0.2329999999999999 0.9572067855211355 0.002950000000000008
0.4589999999999999 0.873815876493627 0.002950000000000008
0.5902634217645819 0.8043926292110026 0.002950000000000008
-0.568755385382719 -0.7931013963136178 0.1298742172823706
-0.4343805949719022 -0.8253151818853401 0.2141645303694224
-0.2190000000000001 -0.9093539464482834 0.2280499999999999
0.006999999999999895 -0.952333937456139 0.2280499999999999
0.2329999999999999 -0.9384015656582673 0.2280499999999999
0.4589999999999999 -0.8675568310546683 0.2280499999999999
0.5960657087665833 -0.8014031865257185 0.2280499999999999
-0.7908714665990615 -0.5691037445105321 0.1256691822171754
-0.6510285921991816 -0.6539033323888908 0.2028050330831064
-0.5026343249531702 -0.7387029202672493 0.2799408839490374
0.7090657087665833 -0.702671965810227 0.2280499999999999
0.8226085489215953 -0.5901219658102269 0.2280499999999999
-0.8219550972095153 -0.44725 0.171670294074759
-0.7399332911438546 -0.44725 0.2842202940747589
0.9069149987865441 -0.44725 0.2280499999999999
-0.8535854825475186 -0.2275330596129238 0.2443747259295019
-0.7759425891761621 -0.3061550993548731 0.3302912098825033
0.9958332140215929 -0.2210357513797483 0.2278721654093707
1.031758904811749 -0.1452595856329137 0.3027869423489513
-0.892014470641411 0.002950000000000008 0.2280499999999999
1.0107851974899 0.002950000000000008 0.1721228358559288
1.03547575916736 0.002950000000000008 0.2846728358559287
-0.8528708213584587 0.2321290558781453 0.2437270144327934
-0.7750988306676756 0.3098817597969088 0.3292116907213225
0.9947402416442863 0.2257998428809957 0.2285061032753721
1.031542107411397 0.1492664048016596 0.3038435054589537
-0.8204962031311748 0.4531499999999999 0.1695112557523972
-0.7382457741268817 0.4531499999999999 0.2820612557523972
0.9037649250866824 0.4531499999999999 0.2280499999999999
-0.7896557215337778 0.5732910519056242 0.1238699836152071
-0.6491933928853933 0.6580056845288178 0.200392463333541
-0.4998724439478081 0.7427203171520114 0.2769149430518749
0.7052932012206048 0.7058605583671302 0.2280499999999999
0.820639752859182 0.5933105583671301 0.2280499999999999
-0.5664912509359532 0.7972326172450579 0.1268482763852083
-0.4327234663686849 0.8278638357037678 0.2123489658311251
-0.2190000000000001 0.9092954660320054 0.2280499999999999
0.006999999999999895 0.9519947441966146 0.2280499999999999
0.2329999999999999 0.9381533681297525 0.2280499999999999
0.4589999999999999 0.8677713378314185 0.2280499999999999
0.5922932012206048 0.804622579562192 0.2280499999999999
-0.3519676582865036 -0.7973820583078185 0.352371452396868
-0.2190000000000001 -0.8247139252131346 0.3860239290248539
0.02196177502083674 -0.8417781011341356 0.4599162717817624
0.2329999999999999 -0.8643033697248288 0.4531499999999999
0.4589999999999999 -0.8320729480300268 0.4531499999999999
0.5853239476965493 -0.7933148232405971 0.4531499999999999
-0.5826351323489776 -0.5886362536005827 0.3573651468627335
-0.4343805949719022 -0.6671417521603495 0.3965926932267598
-0.2307435541736543 -0.6773728951064297 0.5058498768908823
-0.0433970416319388 -0.7557548251773828 0.5394604529696039
0.6983239476965493 -0.717646764545659 0.4531499999999999
0.8438067782705749 -0.6050967645456591 0.4531499999999999
-0.6269332911438547 -0.44725 0.387511732942496
-0.4410706977738585 -0.4566760350515551 0.5070401200249961
-0.3139059236227573 -0.5379933917525919 0.5554512227849986
0.9636439357995812 -0.4409203549800068 0.4495646802433884
1.03876297394874 -0.3616672583000112 0.5222078004056476
-0.7941947878511931 -0.1560884326882064 0.3481865743251593
-0.6887655535056972 -0.2275330596129238 0.4087407251435455
-0.5080182108127108 -0.2221500000000001 0.5326359756855623
1.012997521971868 -0.2953262522995805 0.3721411337389808
1.058612521006368 -0.2210357513797483 0.4495646802433884
-0.7991283023296349 0.002950000000000008 0.351857908620808
-0.671 0.002950000000000008 0.4420105619419847
-0.5241426736984716 0.002950000000000008 0.5433026533211767
1.088021043296803 0.002950000000000008 0.4531499999999999
-0.7939762819216534 0.159815093130242 0.3480239705025847
-0.6882592984006054 0.2321290558781453 0.4081837949810216
-0.5071501968434956 0.2280499999999999 0.5320617658493387
1.012162236458677 0.2993330714683262 0.3745356717707251
1.057832201779779 0.2257998428809957 0.4510014030624352
-0.6252457741268818 0.4531499999999999 0.3863633132700486
-0.4405498893923294 0.4612809901286727 0.5054235840818846
-0.3118526623827039 0.5417349835477876 0.5542882224430761
0.9611838520265152 0.4457304485596556 0.4510014030624352
1.037950172965767 0.3657507475994264 0.5246023384373917
-0.5812288681681668 0.5926536504853448 0.356408130469027
-0.4327234663686849 0.6719121902912069 0.3943437628981679
-0.2295115974296223 0.682054333984236 0.5029302984222397
-0.03844702020229052 0.7596238899737264 0.5373856896758138
0.5613550689191833 0.788618695340479 0.5545199348163046
0.6713102581981889 0.7334152919758601 0.4689519608897827
0.8413581376891361 0.6081550934644655 0.4531499999999999
-0.3492057772811414 0.8014853211878212 0.3507432519181763
-0.2190000000000001 0.8277810701085155 0.3832467061954925
0.02493178787862571 0.8442192315966459 0.4586714138054884
0.2329999999999999 0.8645391256540074 0.4531499999999999
0.4752130413515099 0.825158022581314 0.4689519608897827
0.586850430330315 0.8001538171343905 0.404453268149638
0.1072696250347278 -0.7893401552042045 0.5691450629125541
0.2329999999999999 -0.7970384563117945 0.5775826928074392
0.4589999999999999 -0.7937668126213382 0.5750954416907417
0.5721917030388941 -0.7849779636169295 0.5658287280902905
-0.1632392569560905 -0.6056881585107161 0.5867852794311859
0.02196177502083674 -0.6773728951064297 0.6086543948213254
0.2329999999999999 -0.67235 0.6666848128075475
0.4464894529524599 -0.6585276679107117 0.7063018599375985
0.6625150218233364 -0.6837519687429793 0.6558172368541741
0.8409840382657712 -0.5913303760403343 0.67825
-0.3631178296230976 -0.3879267250859251 0.5791509443304359
-0.2307435541736543 -0.4566760350515551 0.6128335586623308
0.02843275171787463 -0.4263538290972991 0.7230391814791508
0.2329999999999999 -0.5008510392832144 0.7673521200001083
0.3628157549207667 -0.5535450038821206 0.7875091776416752
0.9539840382657712 -0.4964584285650505 0.67825
1.060407930421207 -0.3839084285650505 0.67825
-0.3950182108127108 -0.2221500000000001 0.5929401531762446
-0.2190000000000001 -0.2221500000000001 0.6675133975218566
-0.0161351422510474 -0.2221500000000001 0.7528232443456118
1.136552249523948 -0.2221500000000001 0.67825
-0.4111426736984716 0.002950000000000008 0.5999100882668835
-0.2190000000000001 0.002950000000000008 0.6829135616758406
-0.03608369558359226 0.002950000000000008 0.7612534734089571
1.175760966152315 0.002950000000000008 0.67825
-0.3941501968434956 0.2280499999999999 0.5925649468164382
-0.2190000000000001 0.2280499999999999 0.66668437408656
-0.01506126939829178 0.2280499999999999 0.7523694272701218
1.134441561311289 0.2280499999999999 0.67825
-0.3622498156538823 0.3916683168811212 0.5787757379706298
-0.2295115974296223 0.4612809901286727 0.6118823275256626
0.02907707542952798 0.4313535784260554 0.7217389758656669
0.2329999999999999 0.5038550586327213 0.7656580818487111
0.3694682603249597 0.5570841141335359 0.7862072905943112
0.9496735049474836 0.4995196395800923 0.67825
1.058824914261713 0.3869696395800923 0.67825
-0.1611859957160373 0.6095572233070599 0.5860289176387019
0.02493178787862571 0.682054333984236 0.6068227418433569
0.2329999999999999 0.67825 0.6626191212441945
0.4654116646220716 0.6835202132799791 0.6812415881126832
0.6849999999999998 0.6586887767289902 0.67825
0.8366735049474836 0.5945084568090215 0.67825
0.1122196464643761 0.7934959417221235 0.567805500229589
0.2329999999999999 0.8002863564698288 0.5752110393954832
0.4106884022525166 0.800752533570982 0.5762758856310553
0.5134824215874332 -0.5742794465178529 0.7979208622443834
0.6849999999999998 -0.5765077949868634 0.8002415176398359
0.8163546092225591 -0.5675976134646317 0.7962678279420643
0.1180545861964577 -0.3373897151621653 0.7913508697680391
0.2329999999999999 -0.3883010392832144 0.8042074385357576
0.4464894529524599 -0.4660070023292724 0.8244683713635452
0.6849999999999998 -0.44725 0.8543425737538872
0.8994127655335353 -0.4479263878720336 0.8371981501619503
1.057780933279537 -0.3733439797867227 0.8221950559243389
0.09686485774895259 -0.2221500000000001 0.7973510229351646
0.2329999999999999 -0.2221500000000001 0.830380864818222
0.4589999999999999 -0.2221500000000001 0.8804751322759035
0.6849999999999998 -0.2221500000000001 0.9211845973528587
0.9109999999999998 -0.2221500000000001 0.9343405183627069
1.099105776874799 -0.2221500000000001 0.8606012114026942
0.07691630441640762 0.002950000000000008 0.8029997208764508
0.2329999999999999 0.002950000000000008 0.8429773289824272
0.4589999999999999 0.002950000000000008 0.8964456971807353
0.6849999999999998 0.002950000000000008 0.9430725142529104
0.9109999999999998 0.002950000000000008 0.9696127090613667
1.123215682022872 0.002950000000000008 0.8830082838832158
0.0979387306017081 0.2280499999999999 0.7970469415678874
0.2329999999999999 0.2280499999999999 0.8297027704882145
0.4589999999999999 0.2280499999999999 0.8796154029607712
0.6849999999999998 0.2280499999999999 0.9200063244540422
0.9109999999999998 0.2280499999999999 0.9324417416736366
1.097807889645113 0.2280499999999999 0.8593949912600383
0.1191284590492134 0.3417892973767591 0.7910467884007621
0.2329999999999999 0.3913050586327211 0.8036988677882522
0.4504809561949759 0.4704904684801214 0.8234668174220638
0.6849999999999998 0.4531499999999999 0.8519860279562541
0.8970879658308659 0.452645263104418 0.8353663276020937
1.05648304604985 0.3772754385073633 0.8209888357816832
0.5201349269916264 0.578421731219479 0.7971113349903798
0.6849999999999998 0.5798148152737452 0.7987686765163151
0.8124799430514429 0.5717980224788477 0.7951135670313736
$EndNodes
$Elements
1 744 1 744
2 1 2 744
1 7 6 1 
2 7 1 2 
3 8 7 2 
4 8 2 3 
5 11 10 4 
6 11 4 5 
7 12 11 5 
8 12 5 6 
9 13 12 6 
10 13 6 7 
11 14 13 7 
12 14 7 8 
13 15 14 8 
14 15 8 9 
15 17 16 10 
16 17 10 11 
17 18 17 11 
18 18 11 12 
19 19 18 12 
20 19 12 13 
21 20 19 13 
22 20 13 14 
23 21 20 14 
24 21 14 15 
25 23 22 16 
26 23 16 17 
27 24 23 17 
28 24 17 18 
29 25 24 18 
30 25 18 19 
31 26 25 19 
32 26 19 20 
33 27 26 20 
34 27 20 21 
35 29 28 22 
36 29 22 23 
37 30 29 23 
38 30 23 24 
39 31 30 24 
40 31 24 25 
41 32 31 25 
42 32 25 26 
43 33 32 26 
44 33 26 27 
45 35 34 30 
46 35 30 31 
47 36 35 31 
48 36 31 32 
49 43 42 37 
50 43 37 38 
51 44 43 38 
52 44 38 39 
53 45 2 1 
54 45 1 44 
55 45 44 39 
56 45 39 40 
57 46 3 2 
58 46 2 45 
59 49 48 41 
60 49 41 42 
61 50 5 4 
62 50 4 49 
63 50 49 42 
64 50 42 43 
65 51 44 1 
66 51 1 6 
67 51 6 5 
68 51 5 50 
69 51 50 43 
70 51 43 44 
71 52 8 3 
72 52 3 46 
73 53 9 8 
74 53 8 52 
75 55 54 47 
76 55 47 48 
77 56 49 4 
78 56 4 10 
79 56 55 48 
80 56 48 49 
81 57 15 9 
82 57 9 53 
83 59 58 54 
84 59 54 55 
85 60 56 10 
86 60 10 16 
87 60 59 55 
88 60 55 56 
89 61 21 15 
90 61 15 57 
91 63 62 58 
92 63 58 59 
93 64 60 16 
94 64 16 22 
95 64 63 59 
96 64 59 60 
97 65 27 21 
98 65 21 61 
99 67 66 62 
100 67 62 63 
101 68 64 22 
102 68 22 28 
103 68 67 63 
104 68 63 64 
105 69 68 28 
106 69 28 29 
107 70 69 29 
108 70 29 30 
109 72 33 27 
110 72 27 65 
111 72 71 32 
112 72 32 33 
113 74 73 67 
114 74 67 68 
115 75 74 68 
116 75 68 69 
117 76 70 30 
118 76 30 34 
119 76 75 69 
120 76 69 70 
121 77 76 34 
122 77 34 35 
123 78 36 32 
124 78 32 71 
125 78 77 35 
126 78 35 36 
127 80 79 74 
128 80 74 75 
129 81 80 75 
130 81 75 76 
131 85 38 37 
132 85 37 84 
133 86 39 38 
134 86 38 85 
135 87 40 39 
136 87 39 86 
137 90 89 82 
138 90 82 83 
139 91 84 37 
140 91 37 42 
141 91 42 41 
142 91 41 90 
143 91 90 83 
144 91 83 84 
145 92 45 40 
146 92 40 87 
147 93 46 45 
148 93 45 92 
149 95 94 88 
150 95 88 89 
151 96 90 41 
152 96 41 48 
153 96 48 47 
154 96 47 95 
155 96 95 89 
156 96 89 90 
157 97 52 46 
158 97 46 93 
159 98 53 52 
160 98 52 97 
161 101 95 47 
162 101 47 54 
163 101 100 94 
164 101 94 95 
165 103 57 53 
166 103 53 98 
167 103 98 97 
168 103 97 102 
169 105 104 99 
170 105 99 100 
171 106 101 54 
172 106 54 58 
173 106 105 100 
174 106 100 101 
175 107 61 57 
176 107 57 103 
177 109 108 104 
178 109 104 105 
179 110 106 58 
180 110 58 62 
181 110 109 105 
182 110 105 106 
183 112 65 61 
184 112 61 107 
185 114 110 62 
186 114 62 66 
187 114 113 109 
188 114 109 110 
189 115 114 66 
190 115 66 67 
191 117 72 65 
192 117 65 112 
193 117 116 71 
194 117 71 72 
195 117 112 111 
196 117 111 116 
197 119 118 113 
198 119 113 114 
199 120 115 67 
200 120 67 73 
201 120 119 114 
202 120 114 115 
203 121 120 73 
204 121 73 74 
205 123 122 76 
206 123 76 77 
207 124 78 71 
208 124 71 116 
209 124 123 77 
210 124 77 78 
211 126 125 119 
212 126 119 120 
213 127 121 74 
214 127 74 79 
215 127 126 120 
216 127 120 121 
217 128 127 79 
218 128 79 80 
219 129 81 76 
220 129 76 122 
221 129 128 80 
222 129 80 81 
223 130 129 122 
224 130 122 123 
225 133 83 82 
226 133 82 132 
227 134 84 83 
228 134 83 133 
229 135 85 84 
230 135 84 134 
231 136 86 85 
232 136 85 135 
233 137 87 86 
234 137 86 136 
235 140 132 82 
236 140 82 89 
237 140 89 88 
238 140 88 139 
239 140 139 131 
240 140 131 132 
241 141 92 87 
242 141 87 137 
243 142 93 92 
244 142 92 141 
245 144 139 88 
246 144 88 94 
247 144 143 138 
248 144 138 139 
249 145 97 93 
250 145 93 142 
251 147 144 94 
252 147 94 100 
253 147 100 99 
254 147 99 146 
255 147 146 143 
256 147 143 144 
257 148 102 97 
258 148 97 145 
259 149 103 102 
260 149 102 148 
261 150 146 99 
262 150 99 104 
263 152 107 103 
264 152 103 149 
265 152 149 148 
266 152 148 151 
267 153 150 104 
268 153 104 108 
269 154 153 108 
270 154 108 109 
271 156 112 107 
272 156 107 152 
273 156 155 111 
274 156 111 112 
275 156 152 151 
276 156 151 155 
277 158 154 109 
278 158 109 113 
279 158 157 153 
280 158 153 154 
281 159 116 111 
282 159 111 155 
283 161 158 113 
284 161 113 118 
285 161 160 157 
286 161 157 158 
287 162 161 118 
288 162 118 119 
289 164 124 116 
290 164 116 159 
291 164 163 123 
292 164 123 124 
293 166 162 119 
294 166 119 125 
295 166 165 161 
296 166 161 162 
297 167 166 125 
298 167 125 126 
299 168 167 126 
300 168 126 127 
301 169 168 127 
302 169 127 128 
303 170 169 128 
304 170 128 129 
305 171 130 123 
306 171 123 163 
307 171 170 129 
308 171 129 130 
309 173 132 131 
310 173 131 172 
311 174 133 132 
312 174 132 173 
313 175 134 133 
314 175 133 174 
315 176 135 134 
316 176 134 175 
317 177 136 135 
318 177 135 176 
319 178 137 136 
320 178 136 177 
321 180 172 131 
322 180 131 139 
323 180 139 138 
324 180 138 179 
325 181 141 137 
326 181 137 178 
327 182 142 141 
328 182 141 181 
329 183 179 138 
330 183 138 143 
331 184 145 142 
332 184 142 182 
333 185 183 143 
334 185 143 146 
335 186 148 145 
336 186 145 184 
337 187 185 146 
338 187 146 150 
339 188 151 148 
340 188 148 186 
341 189 187 150 
342 189 150 153 
343 190 155 151 
344 190 151 188 
345 191 189 153 
346 191 153 157 
347 192 159 155 
348 192 155 190 
349 193 191 157 
350 193 157 160 
351 194 193 160 
352 194 160 161 
353 196 164 159 
354 196 159 192 
355 196 195 163 
356 196 163 164 
357 197 194 161 
358 197 161 165 
359 198 197 165 
360 198 165 166 
361 199 198 166 
362 199 166 167 
363 200 199 167 
364 200 167 168 
365 201 200 168 
366 201 168 169 
367 202 201 169 
368 202 169 170 
369 203 171 163 
370 203 163 195 
371 203 202 170 
372 203 170 171 
373 205 173 172 
374 205 172 204 
375 206 174 173 
376 206 173 205 
377 207 175 174 
378 207 174 206 
379 208 176 175 
380 208 175 207 
381 209 177 176 
382 209 176 208 
383 210 178 177 
384 210 177 209 
385 212 204 172 
386 212 172 180 
387 212 180 179 
388 212 179 211 
389 213 205 204 
390 213 204 212 
391 214 181 178 
392 214 178 210 
393 215 182 181 
394 215 181 214 
395 216 211 179 
396 216 179 183 
397 217 212 211 
398 217 211 216 
399 218 184 182 
400 218 182 215 
401 219 216 183 
402 219 183 185 
403 220 217 216 
404 220 216 219 
405 221 186 184 
406 221 184 218 
407 223 219 185 
408 223 185 187 
409 224 188 186 
410 224 186 221 
411 225 224 221 
412 225 221 222 
413 226 223 187 
414 226 187 189 
415 228 190 188 
416 228 188 224 
417 229 228 224 
418 229 224 225 
419 230 226 189 
420 230 189 191 
421 231 227 226 
422 231 226 230 
423 232 192 190 
424 232 190 228 
425 233 230 191 
426 233 191 193 
427 234 233 193 
428 234 193 194 
429 234 231 230 
430 234 230 233 
431 237 196 192 
432 237 192 232 
433 237 236 195 
434 237 195 196 
435 238 234 194 
436 238 194 197 
437 239 238 197 
438 239 197 198 
439 239 235 234 
440 239 234 238 
441 240 239 198 
442 240 198 199 
443 241 240 199 
444 241 199 200 
445 242 241 200 
446 242 200 201 
447 243 242 201 
448 243 201 202 
449 244 203 195 
450 244 195 236 
451 244 243 202 
452 244 202 203 
453 246 206 205 
454 246 205 245 
455 247 207 206 
456 247 206 246 
457 248 208 207 
458 248 207 247 
459 249 209 208 
460 249 208 248 
461 250 210 209 
462 250 209 249 
463 252 245 205 
464 252 205 213 
465 252 213 212 
466 252 212 251 
467 253 246 245 
468 253 245 252 
469 254 247 246 
470 254 246 253 
471 255 214 210 
472 255 210 250 
473 256 215 214 
474 256 214 255 
475 257 251 212 
476 257 212 217 
477 258 252 251 
478 258 251 257 
479 259 253 252 
480 259 252 258 
481 260 218 215 
482 260 215 256 
483 263 257 217 
484 263 217 220 
485 263 220 219 
486 263 219 262 
487 264 258 257 
488 264 257 263 
489 265 221 218 
490 265 218 260 
491 266 222 221 
492 266 221 265 
493 266 265 260 
494 266 260 261 
495 267 262 219 
496 267 219 223 
497 268 263 262 
498 268 262 267 
499 269 264 263 
500 269 263 268 
501 270 225 222 
502 270 222 266 
503 271 267 223 
504 271 223 226 
505 272 271 226 
506 272 226 227 
507 272 268 267 
508 272 267 271 
509 273 269 268 
510 273 268 272 
511 275 229 225 
512 275 225 270 
513 275 274 228 
514 275 228 229 
515 276 272 227 
516 276 227 231 
517 277 273 272 
518 277 272 276 
519 279 232 228 
520 279 228 274 
521 280 279 274 
522 280 274 275 
523 281 276 231 
524 281 231 234 
525 282 281 234 
526 282 234 235 
527 282 277 276 
528 282 276 281 
529 283 278 277 
530 283 277 282 
531 287 237 232 
532 287 232 279 
533 287 286 236 
534 287 236 237 
535 288 282 235 
536 288 235 239 
537 289 288 239 
538 289 239 240 
539 289 283 282 
540 289 282 288 
541 290 289 240 
542 290 240 241 
543 290 284 283 
544 290 283 289 
545 291 290 241 
546 291 241 242 
547 292 291 242 
548 292 242 243 
549 293 244 236 
550 293 236 286 
551 293 292 243 
552 293 243 244 
553 293 286 285 
554 293 285 292 
555 295 248 247 
556 295 247 294 
557 296 249 248 
558 296 248 295 
559 297 250 249 
560 297 249 296 
561 299 294 247 
562 299 247 254 
563 299 254 253 
564 299 253 298 
565 300 295 294 
566 300 294 299 
567 301 296 295 
568 301 295 300 
569 302 255 250 
570 302 250 297 
571 302 297 296 
572 302 296 301 
573 303 256 255 
574 303 255 302 
575 305 298 253 
576 305 253 259 
577 305 259 258 
578 305 258 304 
579 306 299 298 
580 306 298 305 
581 307 300 299 
582 307 299 306 
583 308 301 300 
584 308 300 307 
585 309 260 256 
586 309 256 303 
587 310 261 260 
588 310 260 309 
589 311 304 258 
590 311 258 264 
591 312 305 304 
592 312 304 311 
593 313 306 305 
594 313 305 312 
595 314 266 261 
596 314 261 310 
597 315 311 264 
598 315 264 269 
599 316 312 311 
600 316 311 315 
601 317 313 312 
602 317 312 316 
603 318 270 266 
604 318 266 314 
605 319 315 269 
606 319 269 273 
607 320 316 315 
608 320 315 319 
609 321 317 316 
610 321 316 320 
611 322 275 270 
612 322 270 318 
613 323 319 273 
614 323 273 277 
615 324 323 277 
616 324 277 278 
617 324 320 319 
618 324 319 323 
619 325 321 320 
620 325 320 324 
621 329 280 275 
622 329 275 322 
623 329 328 279 
624 329 279 280 
625 330 324 278 
626 330 278 283 
627 331 330 283 
628 331 283 284 
629 331 325 324 
630 331 324 330 
631 332 326 325 
632 332 325 331 
633 333 327 326 
634 333 326 332 
635 334 333 285 
636 334 285 286 
637 335 287 279 
638 335 279 328 
639 335 334 286 
640 335 286 287 
641 336 331 284 
642 336 284 290 
643 337 336 290 
644 337 290 291 
645 337 332 331 
646 337 331 336 
647 338 292 285 
648 338 285 333 
649 338 337 291 
650 338 291 292 
651 338 333 332 
652 338 332 337 
653 340 302 301 
654 340 301 339 
655 341 303 302 
656 341 302 340 
657 343 307 306 
658 343 306 342 
659 344 339 301 
660 344 301 308 
661 344 308 307 
662 344 307 343 
663 345 340 339 
664 345 339 344 
665 346 309 303 
666 346 303 341 
667 346 341 340 
668 346 340 345 
669 347 310 309 
670 347 309 346 
671 348 342 306 
672 348 306 313 
673 349 343 342 
674 349 342 348 
675 350 344 343 
676 350 343 349 
677 351 345 344 
678 351 344 350 
679 352 346 345 
680 352 345 351 
681 353 314 310 
682 353 310 347 
683 353 347 346 
684 353 346 352 
685 354 348 313 
686 354 313 317 
687 355 349 348 
688 355 348 354 
689 356 350 349 
690 356 349 355 
691 357 351 350 
692 357 350 356 
693 358 352 351 
694 358 351 357 
695 359 318 314 
696 359 314 353 
697 359 353 352 
698 359 352 358 
699 360 354 317 
700 360 317 321 
701 361 355 354 
702 361 354 360 
703 362 356 355 
704 362 355 361 
705 363 357 356 
706 363 356 362 
707 364 358 357 
708 364 357 363 
709 365 322 318 
710 365 318 359 
711 365 359 358 
712 365 358 364 
713 366 360 321 
714 366 321 325 
715 367 366 325 
716 367 325 326 
717 367 361 360 
718 367 360 366 
719 368 367 326 
720 368 326 327 
721 368 362 361 
722 368 361 367 
723 369 363 362 
724 369 362 368 
725 370 364 363 
726 370 363 369 
727 371 329 322 
728 371 322 365 
729 371 370 328 
730 371 328 329 
731 371 365 364 
732 371 364 370 
733 372 368 327 
734 372 327 333 
735 373 372 333 
736 373 333 334 
737 373 369 368 
738 373 368 372 
739 374 335 328 
740 374 328 370 
741 374 373 334 
742 374 334 335 
743 374 370 369 
744 374 369 373 
$EndElements
